<?xml version="1.0" standalone="no"?>
<!DOCTYPE svg PUBLIC "-//W3C//DTD SVG 20010904//EN"
 "http://www.w3.org/TR/2001/REC-SVG-20010904/DTD/svg10.dtd">
<svg version="1.0" xmlns="http://www.w3.org/2000/svg"
 width="16.000000pt" height="16.000000pt" viewBox="0 0 16.000000 16.000000"
 preserveAspectRatio="xMidYMid meet">
<metadata>
Created by potrace 1.11, written by Peter Selinger 2001-2013
</metadata>
<g transform="translate(0.000000,16.000000) scale(0.002867,-0.002867)"
fill="#000000" stroke="none">
<path d="M1048 5568 c-2 -7 -3 -86 -3 -175 l1 -163 -174 -2 -175 -3 -1 -170
-1 -170 -150 -2 c-82 0 -160 -1 -172 -2 -23 -1 -23 -2 -23 -174 l0 -173 -162
1 c-90 0 -169 -1 -176 -3 -18 -6 -18 -3478 0 -3484 7 -2 86 -3 176 -3 l162 2
0 -174 c0 -158 2 -173 18 -174 9 0 78 -1 152 0 199 0 179 18 178 -162 0 -83 0
-160 1 -169 1 -16 16 -18 175 -18 l173 0 -1 -172 -1 -173 1745 0 1744 0 0 172
-1 173 174 0 c158 0 173 2 174 18 0 9 1 87 1 173 l0 156 152 1 c83 0 161 1
173 1 22 1 23 3 25 173 l3 173 173 0 172 0 -2 1745 -3 1745 -172 -1 -173 -1 0
173 0 174 -32 1 c-18 0 -96 2 -173 2 l-140 2 -1 170 -1 170 -175 3 -175 2 1
158 c1 86 0 165 -2 175 -4 16 -95 17 -1742 17 -1382 0 -1739 -3 -1742 -12z"/>
</g>
</svg>
